Coordinates
version=1
nRows=8
nColumns=40
inDegrees=yes

Units are S.I. units (second, meters, Newtons, ...)
If the header above contains a line with 'inDegrees', this indicates whether rotational values are in degrees (yes) or radians (no).

endheader
time	pelvis_tilt	pelvis_list	pelvis_rotation	pelvis_tx	pelvis_ty	pelvis_tz	hip_flexion_r	hip_adduction_r	hip_rotation_r	knee_angle_r	knee_angle_r_beta	ankle_angle_r	subtalar_angle_r	mtp_angle_r	hip_flexion_l	hip_adduction_l	hip_rotation_l	knee_angle_l	knee_angle_l_beta	ankle_angle_l	subtalar_angle_l	mtp_angle_l	lumbar_extension	lumbar_bending	lumbar_rotation	arm_flex_r	arm_add_r	arm_rot_r	elbow_flex_r	pro_sup_r	wrist_flex_r	wrist_dev_r	arm_flex_l	arm_add_l	arm_rot_l	elbow_flex_l	pro_sup_l	wrist_flex_l	wrist_dev_l
      4.05000000	    -10.05957961	     -0.36133854	     -2.21395685	     -0.39830497	      0.88188095	     -1.04062987	     59.03454465	      0.88419525	     -8.79319531	      6.28355201	      0.10966867	      0.93553988	      0.00000000	      0.00000000	     50.53045568	      0.35981502	     -2.41248346	     70.16647012	      1.22463593	     17.20744173	      0.00000000	      0.00000000	     -9.55545213	     -5.89574544	      6.35943629	     89.96964150	    -17.30492556	     12.59095467	     49.92318281	     31.70003431	      0.00000000	      0.00000000	     89.95064518	    -35.21150137	      1.04785060	     50.00491991	     69.96728874	      0.00000000	      0.00000000
      4.05500000	    -10.06994229	     -0.35994758	     -2.22096485	     -0.39811809	      0.88247484	     -1.04053642	     59.01301687	      0.88787853	     -8.78794590	      6.27851093	      0.10958069	      0.93859244	      0.00000000	      0.00000000	     50.50421928	      0.34940027	     -2.40841113	     70.14135473	      1.22419758	     17.19412461	      0.00000000	      0.00000000	     -9.52803007	     -5.90338964	      6.34639270	     89.96954377	    -17.30789862	     12.58620477	     49.94472935	     31.69839073	      0.00000000	      0.00000000	     89.95066738	    -35.21038426	      1.04651423	     50.02628905	     69.97329292	      0.00000000	      0.00000000
      4.06000000	    -10.00390612	     -0.32665804	     -2.24445076	     -0.39785396	      0.88332916	     -1.04041013	     58.87519829	      0.88480714	     -8.69593038	      6.22026377	      0.10856408	      0.93277574	      0.00000000	      0.00000000	     50.28007674	      0.34698612	     -2.45745933	     69.85304202	      1.21916558	     17.03172917	      0.00000000	      0.00000000	     -9.56864293	     -5.96597299	      6.34554124	     89.96952685	    -17.32231630	     12.65560592	     49.84323574	     31.66156562	      0.00000000	      0.00000000	     89.95061676	    -35.19956383	      1.09554243	     49.99253421	     70.04211299	      0.00000000	      0.00000000
      4.06500000	     -9.97211268	     -0.27867710	     -2.28574769	     -0.39756292	      0.88403155	     -1.04026240	     58.77591027	      0.91520237	     -8.69017770	      6.11712614	      0.10676399	      1.02578528	      0.00000000	      0.00000000	     50.15299509	      0.34087631	     -2.54042506	     69.71799755	      1.21680861	     16.94651217	      0.00000000	      0.00000000	     -9.55879434	     -6.03378001	      6.35344103	     89.96948973	    -17.33698061	     12.70651679	     49.79047581	     31.62653381	      0.00000000	      0.00000000	     89.95051900	    -35.21526234	      1.14358694	     49.98191964	     70.12115713	      0.00000000	      0.00000000
      4.07000000	     -9.99139443	     -0.29073248	     -2.29693087	     -0.39744201	      0.88462618	     -1.04013926	     58.76337105	      0.91617639	     -8.68264187	      6.11658190	      0.10675449	      1.02068194	      0.00000000	      0.00000000	     50.13109726	      0.31764584	     -2.53526100	     69.69303183	      1.21637287	     16.93867748	      0.00000000	      0.00000000	     -9.52609250	     -6.02906512	      6.34773050	     89.96947909	    -17.33598614	     12.70062939	     49.81571935	     31.62581482	      0.00000000	      0.00000000	     89.95029842	    -35.21494273	      1.13931947	     50.01026346	     70.12645484	      0.00000000	      0.00000000
      4.07500000	    -10.00539578	     -0.30392171	     -2.30253988	     -0.39719958	      0.88518240	     -1.03999045	     58.74309493	      0.93103574	     -8.67698210	      6.11506335	      0.10672799	      1.01771416	      0.00000000	      0.00000000	     50.10234597	      0.29046365	     -2.52982267	     69.65053897	      1.21563123	     16.92566973	      0.00000000	      0.00000000	     -9.48336605	     -6.02752684	      6.33528781	     89.96929325	    -17.34143203	     12.69481172	     49.83141945	     31.62420518	      0.00000000	      0.00000000	     89.95026202	    -35.21578384	      1.13709826	     50.03248756	     70.13192276	      0.00000000	      0.00000000
      4.08000000	     -9.96210026	     -0.35528548	     -2.31052404	     -0.39687650	      0.88606569	     -1.03980268	     58.62112839	      0.97525894	     -8.64809665	      6.07155631	      0.10596865	      0.96967706	      0.00000000	      0.00000000	     49.87720135	      0.21962915	     -2.52625541	     69.29913112	      1.20949801	     16.79503189	      0.00000000	      0.00000000	     -9.47827712	     -5.99131694	      6.33090550	     89.96929732	    -17.35773920	     12.77616939	     49.66021058	     31.58958010	      0.00000000	      0.00000000	     89.95028073	    -35.20800940	      1.21040743	     49.96223782	     70.18901590	      0.00000000	      0.00000000
      4.08500000	     -9.87277843	     -0.32885577	     -2.35115308	     -0.39657292	      0.88700052	     -1.03962064	     58.45683651	      0.99512744	     -8.64475289	      6.00296092	      0.10477143	      0.91284095	      0.00000000	      0.00000000	     49.66390403	      0.19827642	     -2.57637348	     69.12224232	      1.20641071	     16.69017470	      0.00000000	      0.00000000	     -9.52768344	     -6.04720717	      6.33994239	     89.96930231	    -17.39033970	     12.87946390	     49.54215298	     31.55770497	      0.00000000	      0.00000000	     89.95024852	    -35.20449040	      1.28523532	     49.90135798	     70.25765287	      0.00000000	      0.00000000
